# xmcd CD database file
#
# Track frame offsets:
#	150
#	22622
#	38565
#	52692
#	74733
#	99223
#	125082
#	139797
#	162346
#	180479
#	198634
#	215777
#
# Disc length: 3098 seconds
#
# Revision: 1
# Processed by: cddbd v1.5.2PL0 Copyright (c) Steve Scherf et al.
# Submitted via: CDex 1.70beta2
#
DISCID=a40c180c
DTITLE=奥土居 美可 - What A Difference
DYEAR=2005
DGENRE=Jazz
TTITLE0=Teach Me Tonight
TTITLE1=Lullaby Of Birdland
TTITLE2=Satin Dall
TTITLE3=Tenderly
TTITLE4=What A Difference A Day Made
TTITLE5=Fly Me To The Moon
TTITLE6=Route66
TTITLE7=My Funny Valentine
TTITLE8=Pretend
TTITLE9=Tennessee Waltz
TTITLE10=THe Shadow Of Your Smile
TTITLE11=Love For Sale
EXTD=YEAR: 2005
EXTT0=
EXTT1=
EXTT2=
EXTT3=
EXTT4=
EXTT5=
EXTT6=
EXTT7=
EXTT8=
EXTT9=
EXTT10=
EXTT11=
PLAYORDER=
